<svg width="523" height="142" viewBox="0 0 523 142" fill="none" xmlns="http://www.w3.org/2000/svg">
<path d="M494.646 67.2339L522.597 141.241C514.358 140.063 506.124 138.589 497.735 137.265L481.99 96.3674L465.808 133.885C457.865 132.561 450.063 132.116 442.12 131.088L470.517 66.3513L444.768 0H468.606L483.022 37.0722L498.472 0H522.597L494.646 67.2339ZM425.938 0H404.311V128.294C411.371 128.735 418.728 129.027 425.938 129.909V0ZM385.622 126.82C365.91 125.496 346.194 124.323 326.04 123.877V0H348.105V102.987C360.761 103.282 373.412 104.31 385.622 104.897V126.82ZM302.498 50.1695V72.238H272.341V122.407H250.563V0H312.356V22.0686H272.341V50.1695H302.498ZM213.487 22.0686V123.586C206.131 123.586 198.629 123.586 191.418 123.877V22.0686H168.613V0H236.438V22.0686H213.487ZM144.779 73.4118C135.071 73.4118 123.593 73.4118 115.354 73.8575V106.667C128.302 105.78 141.249 104.752 154.342 104.31V125.496L93.2857 130.355V0H154.342V22.0686H115.354V51.7846C123.889 51.7846 136.982 51.3433 144.779 51.3433V73.4118ZM22.5172 61.0559V138.148C14.5741 139.035 7.50914 140.063 0.00732422 141.241V0H21.0477L49.7355 80.1855V0H71.8041V132.116C64.0066 133.444 56.0635 133.885 47.6747 135.059L22.5172 61.0559Z" fill="#EE1520"/>
</svg>
